<?xml version="1.0" standalone="no"?>
<!DOCTYPE svg PUBLIC "-//W3C//DTD SVG 20010904//EN"
 "http://www.w3.org/TR/2001/REC-SVG-20010904/DTD/svg10.dtd">
<svg version="1.0" xmlns="http://www.w3.org/2000/svg"
 width="187.000000pt" height="187.000000pt" viewBox="0 0 187.000000 187.000000"
 preserveAspectRatio="xMidYMid meet">
<metadata>
Created by potrace 1.14, written by Peter Selinger 2001-2017
</metadata>
<g transform="translate(0.000000,187.000000) scale(0.100000,-0.100000)"
fill="#000000" stroke="none">
<path d="M860 1843 c-230 -38 -310 -52 -330 -58 -8 -2 -78 -14 -155 -25 -235
-35 -268 -50 -300 -139 -14 -41 -14 -153 0 -311 10 -120 1 -831 -11 -852 -2
-3 -5 -47 -5 -96 -1 -101 17 -157 53 -171 32 -12 46 -4 56 33 5 17 9 321 8
674 -1 353 2 655 7 671 16 63 79 102 187 116 25 3 61 7 80 10 19 2 91 13 160
24 205 33 240 34 135 6 -49 -13 -105 -27 -124 -30 -69 -11 -44 -16 54 -11 102
5 253 28 296 45 25 9 20 14 -26 24 -11 3 8 5 43 6 66 1 210 -24 226 -40 19
-17 -141 -70 -272 -89 -42 -6 -88 -13 -102 -15 -14 -2 -43 -6 -65 -9 -22 -4
-60 -8 -85 -11 -164 -15 -208 -29 -244 -78 -20 -27 -20 -41 -20 -720 0 -766
-2 -738 64 -772 35 -18 115 -21 180 -6 25 5 72 13 105 16 33 4 67 8 75 10 8 2
40 7 70 10 234 27 443 97 570 193 137 103 250 282 293 467 25 106 27 121 27
240 1 413 -229 753 -585 865 -55 17 -99 23 -205 25 -74 1 -146 1 -160 -2z
m223 -427 c148 -40 233 -117 265 -241 22 -83 24 -106 28 -335 4 -251 -2 -309
-41 -370 -26 -42 -82 -83 -145 -106 -53 -20 -251 -27 -347 -12 l-63 10 -1 106
c0 59 -2 161 -4 227 -2 66 -6 258 -10 427 l-6 307 33 3 c72 8 236 -2 291 -16z"/>
<path d="M1029 1716 c-2 -3 -31 -8 -64 -11 -33 -4 -63 -9 -66 -11 -3 -1 -28
-6 -55 -10 -27 -3 -52 -8 -55 -10 -3 -2 -21 -6 -40 -9 -41 -7 -136 -24 -164
-29 -11 -2 -45 -7 -75 -11 -100 -13 -151 -43 -176 -105 -17 -41 -19 -87 -9
-225 3 -55 7 -229 8 -387 1 -159 5 -288 9 -288 4 0 4 156 2 348 -3 191 -6 382
-6 424 -1 120 46 190 138 203 21 4 66 10 99 15 33 5 83 12 110 15 28 3 73 10
100 15 28 5 70 12 95 15 25 3 56 8 70 10 14 2 42 7 63 10 36 5 97 30 97 40 0
6 -75 7 -81 1z"/>
<path d="M300 1632 c-51 -52 -54 -72 -56 -537 -2 -236 -4 -538 -6 -670 -3
-224 2 -285 21 -285 4 0 7 300 6 667 -2 413 1 683 7 708 14 55 41 89 88 113
43 21 43 32 -2 32 -19 0 -40 -10 -58 -28z"/>
<path d="M333 598 c0 -7 -4 -58 -8 -113 -10 -125 -12 -279 -3 -324 18 -89 24
-34 24 199 0 137 -3 250 -6 250 -4 0 -7 -6 -7 -12z"/>
</g>
</svg>
