<?xml version="1.0" standalone="no"?>
<!DOCTYPE svg PUBLIC "-//W3C//DTD SVG 20010904//EN"
 "http://www.w3.org/TR/2001/REC-SVG-20010904/DTD/svg10.dtd">
<svg version="1.0" xmlns="http://www.w3.org/2000/svg"
 width="683.000000pt" height="683.000000pt" viewBox="0 0 683.000000 683.000000"
 preserveAspectRatio="xMidYMid meet">
<metadata>
Created by potrace 1.14, written by Peter Selinger 2001-2017
</metadata>
<g transform="translate(0.000000,683.000000) scale(0.100000,-0.100000)"
fill="#000000" stroke="none">
<path d="M643 6756 c-122 -28 -256 -121 -321 -224 -37 -57 -103 -222 -138
-341 -194 -666 -115 -1408 211 -1981 75 -132 80 -139 815 -1147 l654 -898 8
-95 c71 -883 664 -1640 1503 -1918 250 -84 429 -112 698 -112 365 1 660 69
977 226 586 291 1003 806 1165 1438 67 263 65 208 65 1947 l0 1569 54 24 c118
52 247 155 321 256 49 67 101 176 127 266 28 101 31 283 5 388 -69 278 -295
505 -572 576 -96 25 -279 27 -373 5 -290 -68 -517 -297 -588 -591 -23 -95 -23
-268 0 -359 61 -235 211 -421 428 -527 l79 -39 -4 -1582 c-3 -1439 -5 -1590
-20 -1667 -73 -363 -218 -649 -456 -894 -263 -270 -586 -437 -966 -497 -103
-16 -377 -17 -480 0 -382 60 -700 224 -968 500 -263 271 -422 606 -465 979
l-9 74 618 851 c340 469 642 884 672 922 272 350 445 775 503 1234 23 184 15
552 -15 727 -38 223 -105 450 -178 604 -26 54 -55 94 -103 142 -331 332 -891
98 -890 -372 0 -143 48 -257 151 -362 122 -125 314 -186 471 -149 46 11 46 11
54 -189 19 -448 -108 -893 -354 -1240 -82 -116 -269 -305 -378 -383 -277 -196
-618 -291 -927 -258 -383 42 -716 224 -976 536 -217 261 -361 586 -417 946
-19 122 -26 463 -11 550 l8 47 37 -9 c160 -37 361 28 480 155 100 108 142 214
142 361 0 228 -132 414 -348 492 -84 31 -203 38 -289 19z m5491 -551 c93 -45
145 -130 146 -235 0 -153 -107 -261 -260 -263 -179 -1 -301 168 -248 345 16
54 82 126 143 155 61 29 157 28 219 -2z m-4202 -3066 c114 -13 419 -7 502 11
27 5 50 9 51 8 5 -7 -335 -463 -345 -463 -11 0 -340 443 -340 459 0 4 6 6 14
3 8 -3 61 -11 118 -18z"/>
</g>
</svg>
